<?xml version="1.0" encoding="utf-8"?>
<!-- Generator: Adobe Illustrator 23.0.2, SVG Export Plug-In . SVG Version: 6.00 Build 0)  -->
<svg version="1.1" id="Layer_1" xmlns="http://www.w3.org/2000/svg" xmlns:xlink="http://www.w3.org/1999/xlink" x="0px" y="0px"
	 viewBox="0 0 221.5 48.2" style="enable-background:new 0 0 221.5 48.2;" xml:space="preserve">
<style type="text/css">
	.st0{fill:#EABC4C;}
	.st1{fill:#FFFFFF;}
</style>
<path class="st0" d="M178.2,19.1l-6-0.6V11h-5.2v2.8c0,5.8,2.3,7.8,5.1,8.7h-5.1v6.9c0,6.7,3.3,9.4,9.7,9.4c6.4,0,9.7-2.7,9.7-9.4
	v-0.9C186.5,20.5,182.2,19.5,178.2,19.1z M181.3,34.1h-9.1V22.6c1,0.3,2.1,0.5,3.1,0.6l6,0.9V34.1z M193.6,11
	c-1.6,0-2.7,1.1-2.7,2.7c0,1.6,1.1,2.7,2.7,2.7c1.6,0,2.7-1.1,2.7-2.7C196.4,12.1,195.3,11,193.6,11z M206.1,19v-4.7H201
	c0,6.7,3.3,9.4,9.7,9.4h2.1V19H206.1z M206.1,23.1H201v6.3c0,6.7,3.3,9.4,9.7,9.4h2.1v-4.7h-6.7V23.1z M191.1,38.8h5.2V19h-5.2V38.8
	z"/>
<path class="st1" d="M104.6,19.1l-6-0.6V11h-5.2v2.8c0,5.8,2.3,7.8,5.1,8.7h-5.1v16.3h5.2V22.6c1,0.3,2.1,0.5,3.1,0.6l6,0.9v14.7
	h5.2V28.5C112.9,20.5,108.6,19.5,104.6,19.1z M83,34.1h-6.2V19h-5.2v10.4c0,6.7,3.3,9.4,9.7,9.4h6.8V19H83V34.1z M65.6,19h-5.2v10.4
	c0,6.7,3.3,9.4,9.7,9.4h2.1v-4.7h-6.7V19z M153.2,19h-9.7v2.5c0,6.7,3.3,9.4,9.7,9.4h9.7v-2.5C162.9,21.6,159.6,19,153.2,19z
	 M157.8,26.6h-4.6v0h-4.6v-3.2h9.1V26.6z M120.5,11c-1.6,0-2.7,1.1-2.7,2.7c0,1.6,1.1,2.7,2.7,2.7c1.6,0,2.7-1.1,2.7-2.7
	C123.2,12.1,122.1,11,120.5,11z M117.9,38.8h5.2V19h-5.2V38.8z M133,23.1h-5.2v6.3c0,6.7,3.3,9.4,9.7,9.4h2.1v-4.7H133V23.1z
	 M133,14.3h-5.2c0,6.7,3.3,9.4,9.7,9.4h2.1V19H133V14.3z M148.6,30.2h-5.2c0,6,3.3,8.6,9.7,8.6h8.7v-4.7h-13.3V30.2z M42.9,5.1
	c-4.8,0-8.7,3.9-8.7,8.7l-10.5,0l8.7-8.7l-10.6,0c-4.8,0-8.7,3.9-8.7,8.7v0h-0.1c-4.8,0-8.7,3.9-8.7,8.7h8.8V29
	c0,8.7,7.1,15.7,15.7,15.7h16l0-31l8.7-8.7L42.9,5.1z M33.8,28.1c-1.3-1.3-1.3-3.4,0-4.7l4.7,4.7C37.2,29.4,35.1,29.4,33.8,28.1z"/>
</svg>
